<svg xmlns="http://www.w3.org/2000/svg" width="100%" height="100%" viewBox="-10 340 880 190"><g id="Body_Body7" transform="matrix(-9.445782, 0.025472, 0.024746, -9.445652, 375.055609, 433.078101)" style="transform-origin: 50.9843px 11.0558px;"><path d="M-265.782106,-173.7726314 L-268.5223503,-175.3538367 A0.2717457,0.2717457 300.0252398 0,0 -268.794096,-175.3539564 L-276.8235724,-170.7147867 A0.2715382,0.2715382 239.8098463 0,0 -276.9585591,-170.4788553 L-276.9585591,-161.2039043 A0.2715382,0.2715382 180.2582643 0,0 -276.8236681,-160.9680289 L-271.9492359,-158.1540175 -271.9492359,-164.9714119 -272.7401452,-165.9259571 -271.4583272,-165.9259571 -268.6492363,-162.5986847 -265.8765087,-165.9259573 -264.5946908,-165.9259573 -265.3856,-164.9714119 -265.3856,-159.1441396 -266.3583269,-159.1441396 -266.3583269,-163.8077761 -268.6583269,-161.0350491 -270.976509,-163.8077758 -270.976509,-156.4377863 -277.3246659,-160.1025795 A1.2715382,1.2715382 120.0975126 0,1 -277.9585591,-161.205329 L-277.9585591,-170.4774303 A1.2715382,1.2715382 179.8806199 0,1 -277.3246659,-171.5801804 L-269.2940958,-176.2199819 A1.2715382,1.2715382 240.000007 0,1 -268.0225579,-176.2199819 L-263.7812754,-173.7726314 -265.782106,-173.7726314z" transform="matrix(1,0,0,-1,355.8168533,-155.2961748)" stroke-linecap="round" stroke-linejoin="round" fill="rgb(0,0,0)"></path></g><g id="Body_Body6" transform="matrix(-9.445782, 0.025472, 0.024746, -9.445652, 374.667456, 433.249793)" style="transform-origin: 51.3732px 10.8845px;"><path d="M-269.2940958,-155.4665285 A1.2715382,1.2715382 119.999993 0,0 -268.0225579,-155.4665285 L-259.9882367,-160.1063298 A1.2715382,1.2715382 59.9023965 0,0 -259.354343,-161.205329 L-259.354343,-170.4811812 A1.2715382,1.2715382 0.1193661 0,0 -259.9882367,-171.5839313 L-262.0482656,-172.7726314 -271.5310538,-172.7726314 -271.5310538,-171.7726314 -269.1401451,-171.7726314 -269.1401451,-165.9908136 -268.1765087,-165.9908136 -268.1765087,-171.7726314 -262.3160864,-171.7726314 -260.489179,-170.7184496 A0.2715382,0.2715382 300.2269355 0,1 -260.354343,-170.4826061 L-260.3543426,-161.2061945 A0.2715382,0.2715382 0.0495923 0,1 -260.4892759,-160.9717551 L-268.5225881,-156.3325365 A0.2715706,0.2715706 60.0113196 0,1 -268.7941283,-156.3325727 L-269.976509,-157.0151615 -269.976509,-155.8604859 -269.2940958,-155.4665285z" transform="matrix(1,0,0,-1,355.8168533,-155.2961748)" stroke-linecap="round" stroke-linejoin="round" style="fill: rgb(34, 113, 146);"></path></g><g id="Body_Body5" transform="matrix(-9.445782, 0.025472, 0.024746, -9.445652, 377.65794, 433.120832)" style="transform-origin: 48.3836px 11.0132px;"><path d="M-310.5732561,-167.6297413 L-310.5732561,-167.6297413 -310.6036078,-167.5774644 -310.632996,-167.5249072 -310.6614206,-167.4720698 -310.6888817,-167.418952 -310.7153793,-167.3655539 -310.7409133,-167.3118755 -310.7654838,-167.2579168 -310.7890907,-167.2036778 -310.8117341,-167.1491585 -310.8334139,-167.0943589 -310.8541302,-167.039279 -310.873883,-166.9839188 -310.8926722,-166.9282783 -310.9104978,-166.8723574 -310.92736,-166.8161563 -310.9432585,-166.7596749 -310.9581936,-166.7029131 -310.9721651,-166.6458711 -310.985173,-166.5885487 -310.9972174,-166.5309461 -311.0082983,-166.4730631 -311.0184156,-166.4148999 -311.0275694,-166.3564563 -311.0357596,-166.2977324 -311.0429863,-166.2387282 -311.0492494,-166.1794438 -311.054549,-166.119879 -311.0588851,-166.0600339 -311.0622576,-165.9999085 -311.0646665,-165.9395028 -311.066112,-165.8788168 -311.0665938,-165.8178505 -311.0665938,-165.8178505 -311.0661033,-165.7574535 -311.0646317,-165.6973544 -311.062179,-165.6375531 -311.0587453,-165.5780496 -311.0543305,-165.5188439 -311.0489346,-165.4599361 -311.0425577,-165.4013261 -311.0351997,-165.3430139 -311.0268607,-165.2849995 -311.0175405,-165.227283 -311.0072393,-165.1698642 -310.9959571,-165.1127433 -310.9836937,-165.0559203 -310.9704493,-164.999395 -310.9562239,-164.9431676 -310.9410173,-164.887238 -310.9248297,-164.8316062 -310.9076611,-164.7762722 -310.8895114,-164.7212361 -310.8703806,-164.6664978 -310.8502687,-164.6120573 -310.8291758,-164.5579146 -310.8071018,-164.5040698 -310.7840467,-164.4505228 -310.7600106,-164.3972736 -310.7349934,-164.3443222 -310.7089951,-164.2916686 -310.6820158,-164.2393129 -310.6540554,-164.187255 -310.6251139,-164.1354949 -310.5951914,-164.0840327 -310.5642878,-164.0328683 -310.5642878,-164.0328683 -310.5336776,-163.9844062 -310.5023929,-163.936566 -310.4704337,-163.8893477 -310.4378,-163.8427514 -310.4044919,-163.796777 -310.3705093,-163.7514246 -310.3358521,-163.706694 -310.3005205,-163.6625854 -310.2645145,-163.6190987 -310.2278339,-163.576234 -310.1904789,-163.5339911 -310.1524494,-163.4923702 -310.1137454,-163.4513712 -310.0743669,-163.4109942 -310.0343139,-163.3712391 -309.9935865,-163.3321059 -309.9521846,-163.2935946 -309.9101082,-163.2557052 -309.8673573,-163.2184378 -309.8239319,-163.1817923 -309.7798321,-163.1457687 -309.7350577,-163.1103671 -309.6896089,-163.0755873 -309.6434857,-163.0414295 -309.5966879,-163.0078937 -309.5492156,-162.9749797 -309.5010689,-162.9426877 -309.4522477,-162.9110176 -309.402752,-162.8799694 -309.3525818,-162.8495432 -309.3017372,-162.8197389 -309.250218,-162.7905565 -309.250218,-162.7905565 -309.1982347,-162.7621361 -309.1459972,-162.7346181 -309.0935058,-162.7080022 -309.0407603,-162.6822886 -308.9877608,-162.6574772 -308.9345073,-162.6335681 -308.8809997,-162.6105612 -308.8272381,-162.5884565 -308.7732225,-162.567254 -308.7189528,-162.5469538 -308.6644292,-162.5275558 -308.6096515,-162.5090601 -308.5546197,-162.4914665 -308.4993339,-162.4747753 -308.4437941,-162.4589862 -308.3880003,-162.4440994 -308.3319525,-162.4301148 -308.2756506,-162.4170324 -308.2190947,-162.4048523 -308.1622847,-162.3935744 -308.1052208,-162.3831988 -308.0479028,-162.3737253 -307.9903307,-162.3651542 -307.9325047,-162.3574852 -307.8744246,-162.3507185 -307.8160905,-162.344854 -307.7575023,-162.3398917 -307.6986602,-162.3358317 -307.639564,-162.3326739 -307.5802137,-162.3304183 -307.5206095,-162.329065 -307.4607512,-162.3286139 -307.4607512,-162.3286139 -307.3986811,-162.3290869 -307.3369263,-162.3305059 -307.2754869,-162.332871 -307.2143628,-162.3361821 -307.1535541,-162.3404392 -307.0930607,-162.3456423 -307.0328826,-162.3517915 -306.97302,-162.3588867 -306.9134726,-162.3669279 -306.8542406,-162.3759152 -306.7953239,-162.3858485 -306.7367226,-162.3967278 -306.6784367,-162.4085532 -306.620466,-162.4213245 -306.5628108,-162.435042 -306.5054708,-162.4497054 -306.4484462,-162.4653149 -306.391737,-162.4818704 -306.3353431,-162.4993719 -306.2792645,-162.5178195 -306.2235013,-162.5372131 -306.1680535,-162.5575527 -306.112921,-162.5788383 -306.0581038,-162.60107 -306.003602,-162.6242477 -305.9494155,-162.6483715 -305.8955443,-162.6734412 -305.8419885,-162.699457 -305.7887481,-162.7264189 -305.735823,-162.7543267 -305.6832132,-162.7831806 -305.6309188,-162.8129805 -305.6309188,-162.8129805 -305.5802449,-162.8424739 -305.5302543,-162.8726505 -305.4809469,-162.9035103 -305.4323228,-162.9350534 -305.3843819,-162.9672798 -305.3371242,-163.0001893 -305.2905498,-163.0337821 -305.2446586,-163.0680582 -305.1994507,-163.1030175 -305.154926,-163.13866 -305.1110845,-163.1749858 -305.0679263,-163.2119949 -305.0254514,-163.2496871 -304.9836596,-163.2880626 -304.9425512,-163.3271214 -304.9021259,-163.3668634 -304.8623839,-163.4072886 -304.8233252,-163.4483971 -304.7849497,-163.4901888 -304.7472574,-163.5326638 -304.7102484,-163.575822 -304.6739226,-163.6196635 -304.63828,-163.6641882 -304.6033207,-163.7093961 -304.5690447,-163.7552873 -304.5354519,-163.8018617 -304.5025423,-163.8491193 -304.470316,-163.8970603 -304.4387729,-163.9456844 -304.407913,-163.9949918 -304.3777364,-164.0449824 -304.348243,-164.0956563 -304.348243,-164.0956563 -304.3184431,-164.1479507 -304.2895891,-164.2005604 -304.2616812,-164.2534855 -304.2347193,-164.3067259 -304.2087035,-164.3602817 -304.1836337,-164.4141528 -304.1595099,-164.4683392 -304.1363321,-164.522841 -304.1141004,-164.5776581 -304.0928147,-164.6327906 -304.0724751,-164.6882384 -304.0530814,-164.7440016 -304.0346338,-164.8000801 -304.0171323,-164.8564739 -304.0005767,-164.9131831 -303.9849672,-164.9702077 -303.9703037,-165.0275476 -303.9565863,-165.0852028 -303.9438149,-165.1431734 -303.9319895,-165.2014593 -303.9211101,-165.2600605 -303.9111768,-165.3189771 -303.9021895,-165.3782091 -303.8941482,-165.4377564 -303.887053,-165.497619 -303.8809038,-165.557797 -303.8757006,-165.6182903 -303.8714435,-165.679099 -303.8681324,-165.740223 -303.8657673,-165.8016623 -303.8643483,-165.863417 -303.8638753,-165.925487 -303.8638753,-165.925487 -303.8643745,-165.9853234 -303.8658724,-166.0448619 -303.8683689,-166.1041026 -303.8718639,-166.1630455 -303.8763576,-166.2216906 -303.8818498,-166.2800378 -303.8883406,-166.3380872 -303.89583,-166.3958388 -303.904318,-166.4532926 -303.9138045,-166.5104485 -303.9242897,-166.5673067 -303.9357734,-166.623867 -303.9482558,-166.6801294 -303.9617367,-166.7360941 -303.9762162,-166.7917609 -303.9916942,-166.8471299 -304.0081709,-166.9022011 -304.0256462,-166.9569744 -304.04412,-167.0114499 -304.0635924,-167.0656276 -304.0840634,-167.1195075 -304.105533,-167.1730896 -304.1280012,-167.2263738 -304.151468,-167.2793602 -304.1759333,-167.3320488 -304.2013973,-167.3844395 -304.2278598,-167.4365325 -304.2553209,-167.4883276 -304.2837806,-167.5398248 -304.3132389,-167.5910243 -304.3436958,-167.6419259 -304.3751512,-167.6925297 -304.3751512,-167.6925297 -304.4057615,-167.7404312 -304.4370462,-167.7877108 -304.4690054,-167.8343685 -304.501639,-167.8804042 -304.5349472,-167.925818 -304.5689298,-167.9706098 -304.6035869,-168.0147798 -304.6389185,-168.0583278 -304.6749246,-168.1012538 -304.7116051,-168.143558 -304.7489602,-168.1852402 -304.7869897,-168.2263005 -304.8256937,-168.2667389 -304.8650722,-168.3065553 -304.9051251,-168.3457499 -304.9458526,-168.3843224 -304.9872545,-168.4222731 -305.0293309,-168.4596018 -305.0720818,-168.4963087 -305.1155071,-168.5323935 -305.159607,-168.5678565 -305.2043813,-168.6026975 -305.2498301,-168.6369166 -305.2959534,-168.6705138 -305.3427512,-168.703489 -305.3902234,-168.7358424 -305.4383702,-168.7675738 -305.4871914,-168.7986832 -305.5366871,-168.8291708 -305.5868572,-168.8590364 -305.6377019,-168.8882801 -305.689221,-168.9169018 -305.689221,-168.9169018 -305.7411956,-168.9447703 -305.7934068,-168.971754 -305.8458544,-168.997853 -305.8985386,-169.0230673 -305.9514593,-169.0473969 -306.0046164,-169.0708418 -306.0580101,-169.0934019 -306.1116403,-169.1150774 -306.165507,-169.1358681 -306.2196103,-169.1557742 -306.27395,-169.1747955 -306.3285262,-169.1929321 -306.383339,-169.210184 -306.4383882,-169.2265512 -306.493674,-169.2420336 -306.5491963,-169.2566314 -306.6049551,-169.2703444 -306.6609504,-169.2831728 -306.7171822,-169.2951164 -306.7736505,-169.3061753 -306.8303553,-169.3163495 -306.8872967,-169.325639 -306.9444745,-169.3340437 -307.0018889,-169.3415638 -307.0595398,-169.3481991 -307.1174271,-169.3539498 -307.175551,-169.3588157 -307.2339114,-169.3627969 -307.2925083,-169.3658934 -307.3513418,-169.3681052 -307.4104117,-169.3694323 -307.4697181,-169.3698746 -307.4697181,-169.3698746 -307.5306845,-169.3694104 -307.5913706,-169.3680176 -307.6517763,-169.3656963 -307.7119018,-169.3624465 -307.7717469,-169.3582682 -307.8313118,-169.3531614 -307.8905963,-169.3471261 -307.9496005,-169.3401623 -308.0083245,-169.3322699 -308.0667681,-169.3234491 -308.1249314,-169.3136997 -308.1828144,-169.3030218 -308.2404171,-169.2914155 -308.2977395,-169.2788806 -308.3547816,-169.2654172 -308.4115434,-169.2510253 -308.4680249,-169.2357048 -308.524226,-169.2194559 -308.5801469,-169.2022785 -308.6357875,-169.1841725 -308.6911477,-169.1651381 -308.7462277,-169.1451751 -308.8010273,-169.1242836 -308.8555466,-169.1024636 -308.9097857,-169.0797151 -308.9637444,-169.0560381 -309.0174228,-169.0314326 -309.0708209,-169.0058986 -309.1239388,-168.979436 -309.1767763,-168.952045 -309.2293335,-168.9237254 -309.2816103,-168.8944773 -309.2816103,-168.8944773 -309.332293,-168.8650015 -309.3823099,-168.8348775 -309.4316611,-168.8041053 -309.4803465,-168.7726848 -309.5283663,-168.7406162 -309.5757203,-168.7078994 -309.6224086,-168.6745343 -309.6684312,-168.640521 -309.713788,-168.6058596 -309.7584791,-168.5705499 -309.8025046,-168.534592 -309.8458642,-168.497986 -309.8885582,-168.4607317 -309.9305864,-168.4228292 -309.9719489,-168.3842785 -310.0126457,-168.3450796 -310.0526768,-168.3052325 -310.0920421,-168.2647372 -310.1307418,-168.2235937 -310.1687757,-168.181802 -310.2061438,-168.139362 -310.2428463,-168.0962739 -310.278883,-168.0525376 -310.314254,-168.008153 -310.3489593,-167.9631203 -310.3829989,-167.9174393 -310.4163727,-167.8711102 -310.4490808,-167.8241328 -310.4811232,-167.7765072 -310.5124999,-167.7282334 -310.5432109,-167.6793115 -310.5732561,-167.6297413z" transform="matrix(1,0,0,-1,355.8168533,-155.2961748)" stroke-linecap="round" stroke-linejoin="round" style="fill: rgb(34, 113, 146);"></path><path d="M-310.09786,-165.8716694 L-310.09786,-165.8716694 -310.0975095,-165.8274864 -310.0964582,-165.7835136 -310.0947062,-165.739751 -310.0922535,-165.6961987 -310.0890999,-165.6528566 -310.0852457,-165.6097247 -310.0806906,-165.5668031 -310.0754348,-165.5240916 -310.0694783,-165.4815904 -310.0628209,-165.4392995 -310.0554629,-165.3972187 -310.047404,-165.3553482 -310.0386444,-165.3136879 -310.0291841,-165.2722378 -310.0190229,-165.230998 -310.0081611,-165.1899684 -309.9965984,-165.149149 -309.984335,-165.1085398 -309.9713709,-165.0681409 -309.957706,-165.0279522 -309.9433403,-164.9879737 -309.9282739,-164.9482055 -309.9125067,-164.9086474 -309.8960387,-164.8692996 -309.87887,-164.8301621 -309.8610006,-164.7912347 -309.8424303,-164.7525176 -309.8231594,-164.7140107 -309.8031876,-164.6757141 -309.7825151,-164.6376276 -309.7611418,-164.5997514 -309.7390678,-164.5620854 -309.7390678,-164.5620854 -309.7169544,-164.5264342 -309.6943418,-164.4912384 -309.6712298,-164.4564981 -309.6476186,-164.4222133 -309.623508,-164.388384 -309.5988981,-164.3550102 -309.573789,-164.3220919 -309.5481806,-164.2896291 -309.5220728,-164.2576217 -309.4954658,-164.2260699 -309.4683595,-164.1949736 -309.4407538,-164.1643327 -309.4126489,-164.1341474 -309.3840447,-164.1044176 -309.3549412,-164.0751432 -309.3253384,-164.0463243 -309.2952363,-164.017961 -309.2646349,-163.9900531 -309.2335342,-163.9626007 -309.2019342,-163.9356039 -309.1698349,-163.9090625 -309.1372364,-163.8829766 -309.1041385,-163.8573462 -309.0705413,-163.8321713 -309.0364448,-163.8074519 -309.0018491,-163.783188 -308.966754,-163.7593796 -308.9311597,-163.7360267 -308.895066,-163.7131293 -308.8584731,-163.6906873 -308.8213809,-163.6687009 -308.7837893,-163.64717 -308.7837893,-163.64717 -308.7458517,-163.6261996 -308.7077213,-163.6058951 -308.6693983,-163.5862562 -308.6308826,-163.567283 -308.5921741,-163.5489756 -308.553273,-163.5313339 -308.5141791,-163.514358 -308.4748926,-163.4980477 -308.4354134,-163.4824032 -308.3957414,-163.4674244 -308.3558768,-163.4531113 -308.3158194,-163.439464 -308.2755694,-163.4264823 -308.2351266,-163.4141664 -308.1944912,-163.4025162 -308.153663,-163.3915318 -308.1126422,-163.3812131 -308.0714286,-163.37156 -308.0300224,-163.3625728 -307.9884234,-163.3542512 -307.9466318,-163.3465954 -307.9046474,-163.3396052 -307.8624704,-163.3332809 -307.8201006,-163.3276222 -307.7775382,-163.3226292 -307.734783,-163.318302 -307.6918352,-163.3146405 -307.6486946,-163.3116448 -307.6053613,-163.3093147 -307.5618354,-163.3076504 -307.5181167,-163.3066518 -307.4742054,-163.3063189 -307.4742054,-163.3063189 -307.4302939,-163.3066387 -307.3865751,-163.3075978 -307.3430491,-163.3091965 -307.2997157,-163.3114345 -307.2565751,-163.314312 -307.2136272,-163.317829 -307.1708719,-163.3219854 -307.1283094,-163.3267813 -307.0859396,-163.3322166 -307.0437625,-163.3382913 -307.0017781,-163.3450055 -306.9599864,-163.3523591 -306.9183874,-163.3603522 -306.8769811,-163.3689847 -306.8357675,-163.3782567 -306.7947466,-163.3881681 -306.7539185,-163.3987189 -306.713283,-163.4099092 -306.6728402,-163.421739 -306.6325902,-163.4342082 -306.5925328,-163.4473168 -306.5526682,-163.4610649 -306.5129962,-163.4754524 -306.473517,-163.4904794 -306.4342305,-163.5061458 -306.3951367,-163.5224516 -306.3562355,-163.5393969 -306.3175271,-163.5569817 -306.2790114,-163.5752059 -306.2406884,-163.5940695 -306.2025581,-163.6135726 -306.1646206,-163.6337151 -306.1646206,-163.6337151 -306.1270202,-163.6544007 -306.0899016,-163.6755331 -306.0532649,-163.6971122 -306.0171098,-163.719138 -305.9814366,-163.7416106 -305.9462451,-163.7645299 -305.9115355,-163.7878959 -305.8773075,-163.8117087 -305.8435614,-163.8359682 -305.8102971,-163.8606745 -305.7775145,-163.8858275 -305.7452137,-163.9114272 -305.7133947,-163.9374736 -305.6820574,-163.9639668 -305.6512019,-163.9909068 -305.6208283,-164.0182935 -305.5909363,-164.0461269 -305.5615262,-164.074407 -305.5325978,-164.1031339 -305.5041512,-164.1323075 -305.4761864,-164.1619279 -305.4487034,-164.191995 -305.4217022,-164.2225088 -305.3951827,-164.2534694 -305.369145,-164.2848767 -305.343589,-164.3167307 -305.3185149,-164.3490315 -305.2939225,-164.381779 -305.2698119,-164.4149733 -305.2461831,-164.4486143 -305.2230361,-164.482702 -305.2003708,-164.5172365 -305.2003708,-164.5172365 -305.1771931,-164.5543419 -305.1547512,-164.5916575 -305.1330451,-164.6291833 -305.1120747,-164.6669194 -305.0918402,-164.7048657 -305.0723415,-164.7430222 -305.0535786,-164.781389 -305.0355515,-164.8199659 -305.0182601,-164.8587532 -305.0017046,-164.8977506 -304.9858849,-164.9369582 -304.970801,-164.9763761 -304.9564529,-165.0160043 -304.9428406,-165.0558426 -304.9299641,-165.0958912 -304.9178234,-165.13615 -304.9064184,-165.176619 -304.8957493,-165.2172983 -304.885816,-165.2581878 -304.8766185,-165.2992875 -304.8681568,-165.3405974 -304.8604309,-165.3821176 -304.8534408,-165.423848 -304.8471865,-165.4657886 -304.841668,-165.5079394 -304.8368853,-165.5503005 -304.8328384,-165.5928718 -304.8295273,-165.6356534 -304.826952,-165.6786451 -304.8251125,-165.7218471 -304.8240088,-165.7652593 -304.8236409,-165.8088818 -304.8236409,-165.8088818 -304.8239825,-165.8547204 -304.8250074,-165.9002962 -304.8267155,-165.9456092 -304.8291068,-165.9906595 -304.8321814,-166.0354469 -304.8359392,-166.0799716 -304.8403803,-166.1242335 -304.8455046,-166.1682326 -304.8513122,-166.2119689 -304.857803,-166.2554425 -304.8649771,-166.2986532 -304.8728344,-166.3416012 -304.8813749,-166.3842863 -304.8905987,-166.4267087 -304.9005057,-166.4688683 -304.911096,-166.5107652 -304.9223695,-166.5523992 -304.9343262,-166.5937704 -304.9469662,-166.6348789 -304.9602895,-166.6757246 -304.9742959,-166.7163075 -304.9889857,-166.7566276 -305.0043586,-166.7966849 -305.0204148,-166.8364794 -305.0371543,-166.8760112 -305.054577,-166.9152801 -305.0726829,-166.9542863 -305.0914721,-166.9930297 -305.1109445,-167.0315103 -305.1311002,-167.0697281 -305.1519391,-167.1076832 -305.1734612,-167.1453754 -305.1734612,-167.1453754 -305.1950228,-167.1810179 -305.2171011,-167.2161875 -305.2396962,-167.250884 -305.2628082,-167.2851075 -305.286437,-167.3188579 -305.3105826,-167.3521354 -305.335245,-167.3849398 -305.3604242,-167.4172713 -305.3861203,-167.4491297 -305.4123332,-167.4805151 -305.4390628,-167.5114275 -305.4663093,-167.5418668 -305.4940727,-167.5718332 -305.5223528,-167.6013265 -305.5511497,-167.6303468 -305.5804635,-167.6588941 -305.6102941,-167.6869684 -305.6406415,-167.7145697 -305.6715057,-167.741698 -305.7028867,-167.7683532 -305.7347846,-167.7945355 -305.7671992,-167.8202447 -305.8001307,-167.8454809 -305.833579,-167.8702441 -305.8675441,-167.8945342 -305.902026,-167.9183514 -305.9370248,-167.9416955 -305.9725403,-167.9645667 -306.0085727,-167.9869648 -306.0451219,-168.0088899 -306.0821879,-168.030342 -306.1197707,-168.051321 -306.1197707,-168.051321 -306.157739,-168.0717395 -306.1959613,-168.0915097 -306.2344375,-168.1106318 -306.2731679,-168.1291056 -306.3121522,-168.1469313 -306.3513906,-168.1641087 -306.390883,-168.1806379 -306.4306294,-168.196519 -306.4706298,-168.2117518 -306.5108843,-168.2263364 -306.5513928,-168.2402728 -306.5921553,-168.253561 -306.6331718,-168.266201 -306.6744424,-168.2781928 -306.715967,-168.2895364 -306.7577456,-168.3002318 -306.7997782,-168.310279 -306.8420648,-168.3196779 -306.8846055,-168.3284287 -306.9274002,-168.3365313 -306.9704489,-168.3439856 -307.0137517,-168.3507918 -307.0573085,-168.3569498 -307.1011193,-168.3624595 -307.1451841,-168.367321 -307.1895029,-168.3715344 -307.2340758,-168.3750995 -307.2789027,-168.3780164 -307.3239836,-168.3802852 -307.3693186,-168.3819057 -307.4149075,-168.382878 -307.4607505,-168.3832021 -307.4607505,-168.3832021 -307.5049379,-168.3828868 -307.5489238,-168.3819407 -307.5927083,-168.380364 -307.6362913,-168.3781566 -307.6796728,-168.3753185 -307.7228529,-168.3718497 -307.7658315,-168.3677503 -307.8086086,-168.3630201 -307.8511843,-168.3576593 -307.8935585,-168.3516678 -307.9357312,-168.3450456 -307.9777025,-168.3377927 -308.0194723,-168.3299091 -308.0610406,-168.3213948 -308.1024075,-168.3122499 -308.1435729,-168.3024742 -308.1845369,-168.2920679 -308.2252993,-168.2810309 -308.2658604,-168.2693632 -308.3062199,-168.2570648 -308.346378,-168.2441358 -308.3863346,-168.230576 -308.4260898,-168.2163856 -308.4656435,-168.2015645 -308.5049957,-168.1861126 -308.5441464,-168.1700301 -308.5830957,-168.153317 -308.6218436,-168.1359731 -308.6603899,-168.1179986 -308.6987348,-168.0993933 -308.7368782,-168.0801574 -308.7748202,-168.0602908 -308.7748202,-168.0602908 -308.8124118,-168.0398723 -308.8495041,-168.0189809 -308.8860971,-167.9976164 -308.9221908,-167.9757789 -308.9577852,-167.9534683 -308.9928803,-167.9306848 -309.0274761,-167.9074283 -309.0615726,-167.8836987 -309.0951698,-167.8594961 -309.1282677,-167.8348205 -309.1608664,-167.8096719 -309.1929657,-167.7840503 -309.2245657,-167.7579557 -309.2556664,-167.731388 -309.2862679,-167.7043473 -309.31637,-167.6768336 -309.3459729,-167.6488469 -309.3750764,-167.6203872 -309.4036807,-167.5914545 -309.4317856,-167.5620488 -309.4593913,-167.53217 -309.4864977,-167.5018182 -309.5131047,-167.4709934 -309.5392125,-167.4396956 -309.564821,-167.4079248 -309.5899301,-167.375681 -309.61454,-167.3429641 -309.6386506,-167.3097743 -309.6622619,-167.2761114 -309.6853739,-167.2419755 -309.7079866,-167.2073666 -309.7301,-167.1722847 -309.7301,-167.1722847 -309.7527259,-167.1357136 -309.7746334,-167.0988798 -309.7958227,-167.0617832 -309.8162937,-167.0244238 -309.8360465,-166.9868016 -309.8550809,-166.9489166 -309.8733971,-166.9107689 -309.890995,-166.8723583 -309.9078746,-166.833685 -309.9240359,-166.7947489 -309.939479,-166.75555 -309.9542037,-166.7160883 -309.9682102,-166.6763638 -309.9814984,-166.6363765 -309.9940683,-166.5961265 -310.00592,-166.5556136 -310.0170533,-166.514838 -310.0274684,-166.4737996 -310.0371652,-166.4324984 -310.0461437,-166.3909344 -310.054404,-166.3491077 -310.0619459,-166.3070181 -310.0687696,-166.2646658 -310.074875,-166.2220507 -310.0802621,-166.1791728 -310.0849309,-166.1360321 -310.0888815,-166.0926286 -310.0921137,-166.0489623 -310.0946277,-166.0050333 -310.0964234,-165.9608414 -310.0975008,-165.9163868 -310.09786,-165.8716694z" transform="matrix(1,0,0,-1,355.8168533,-155.2961748)" stroke-width="0.0010cm" stroke-linecap="round" stroke-linejoin="round" style="fill: rgb(255, 255, 255);"></path></g><g id="Body_Body11" transform="matrix(-9.445782, 0.025472, 0.024746, -9.445652, 380.409832, 434.028181)" style="transform-origin: 45.6312px 11.0141px;"><path d="M-342.6063703,-162.3286136 L-345.602852,-168.5163883 -345.2224942,-169.3698745 -346.3357377,-169.3698745 -349.6661893,-162.3286136 -348.5343913,-162.3286136 -348.0798156,-163.3398093 -345.9739309,-163.3398093 -345.9739309,-163.3398093 -345.9001858,-163.3393744 -345.827383,-163.3380698 -345.7555223,-163.3358955 -345.6846038,-163.3328515 -345.6146275,-163.3289378 -345.5455934,-163.3241543 -345.4775014,-163.3185011 -345.4103516,-163.3119782 -345.344144,-163.3045856 -345.2788786,-163.2963233 -345.2145553,-163.2871912 -345.1511743,-163.2771894 -345.0887354,-163.2663179 -345.0272386,-163.2545767 -344.9666841,-163.2419658 -344.9070717,-163.2284851 -344.9070717,-163.2284851 -344.855432,-163.2154756 -344.8048794,-163.2019587 -344.7554139,-163.1879345 -344.7070357,-163.1734029 -344.6597445,-163.158364 -344.6135406,-163.1428177 -344.5684238,-163.1267642 -344.5243942,-163.1102032 -344.4814517,-163.0931349 -344.4395964,-163.0755593 -344.3988283,-163.0574764 -344.3591473,-163.0388861 -344.3205535,-163.0197884 -344.2830468,-163.0001835 -344.2466273,-162.9800711 -344.211295,-162.9594515 -344.211295,-162.9594515 -344.1806373,-162.9408612 -344.1512841,-162.9221984 -344.1232356,-162.9034632 -344.0964916,-162.8846555 -344.0710522,-162.8657753 -344.0469174,-162.8468227 -344.0240872,-162.8277975 -344.0025616,-162.8086999 -343.9823406,-162.7895298 -343.9634241,-162.7702872 -343.9458122,-162.7509722 -343.9295049,-162.7315847 -343.9145022,-162.7121247 -343.9008041,-162.6925922 -343.8884105,-162.6729872 -343.8773216,-162.6533098 -343.7010594,-162.3286136 -342.6063703,-162.3286136z" transform="matrix(1,0,0,-1,355.8168533,-155.2961748)" stroke-linecap="round" stroke-linejoin="round" fill="rgb(0,0,0)"></path><path d="M-346.3450132,-164.3602818 L-346.3450132,-164.3602818 -346.2622804,-164.359847 -346.1810697,-164.3585424 -346.1013811,-164.3563682 -346.0232145,-164.3533242 -345.94657,-164.3494105 -345.8714475,-164.3446271 -345.7978471,-164.3389739 -345.7257688,-164.3324511 -345.6552125,-164.3250585 -345.5861783,-164.3167961 -345.5186661,-164.3076641 -345.452676,-164.2976623 -345.388208,-164.2867908 -345.325262,-164.2750496 -345.2638381,-164.2624387 -345.2039362,-164.248958 -345.2039362,-164.248958 -345.1525868,-164.2359122 -345.1029043,-164.2222865 -345.0548887,-164.208081 -345.0085401,-164.1932957 -344.9638584,-164.1779306 -344.9208436,-164.1619857 -344.8794958,-164.1454609 -344.8398149,-164.1283564 -344.8018009,-164.1106721 -344.7654539,-164.0924079 -344.7307738,-164.073564 -344.6977606,-164.0541402 -344.6664144,-164.0341367 -344.6367351,-164.0135533 -344.6087228,-163.9923901 -344.5823773,-163.9706472 -346.1130876,-167.2825442 -347.6252434,-164.3602818 -346.3450132,-164.3602818z" transform="matrix(1,0,0,-1,355.8168533,-155.2961748)" stroke="rgb(0,0,0)" stroke-width="0.0010cm" stroke-linecap="round" stroke-linejoin="round" fill="rgb(255,255,255)"></path></g><g id="Body_Body1" transform="matrix(-9.445782, 0.025472, 0.024746, -9.445652, 379.8726, 433.891981)" style="transform-origin: 46.1673px 11.0101px;"><path d="M-335.0827038,-162.3286136 L-338.0791854,-168.5163883 -337.6988276,-169.3698745 -338.8120712,-169.3698745 -342.1425227,-162.3286136 -341.0107247,-162.3286136 -340.556149,-163.3398093 -338.4502643,-163.3398093 -338.4502643,-163.3398093 -338.3765192,-163.3393744 -338.3037164,-163.3380698 -338.2318558,-163.3358955 -338.1609373,-163.3328515 -338.0909611,-163.3289378 -338.021927,-163.3241543 -337.9538351,-163.3185011 -337.8866855,-163.3119782 -337.820478,-163.3045856 -337.7552127,-163.2963233 -337.6908896,-163.2871912 -337.6275087,-163.2771894 -337.5650699,-163.2663179 -337.5035734,-163.2545767 -337.4430191,-163.2419658 -337.3834069,-163.2284851 -337.3834069,-163.2284851 -337.3317672,-163.2154756 -337.2812146,-163.2019587 -337.2317491,-163.1879345 -337.1833708,-163.1734029 -337.1360797,-163.158364 -337.0898758,-163.1428177 -337.044759,-163.1267642 -337.0007293,-163.1102032 -336.9577869,-163.0931349 -336.9159316,-163.0755593 -336.8751634,-163.0574764 -336.8354825,-163.0388861 -336.7968886,-163.0197884 -336.759382,-163.0001835 -336.7229625,-162.9800711 -336.6876302,-162.9594515 -336.6876302,-162.9594515 -336.6569724,-162.9408612 -336.6276193,-162.9221984 -336.5995708,-162.9034632 -336.5728268,-162.8846555 -336.5473874,-162.8657753 -336.5232526,-162.8468227 -336.5004224,-162.8277975 -336.4788968,-162.8086999 -336.4586757,-162.7895298 -336.4397593,-162.7702872 -336.4221474,-162.7509722 -336.4058401,-162.7315847 -336.3908374,-162.7121247 -336.3771393,-162.6925922 -336.3647457,-162.6729872 -336.3536568,-162.6533098 -336.1773928,-162.3286136 -335.0827038,-162.3286136z" transform="matrix(1,0,0,-1,355.8168533,-155.2961748)" stroke-linecap="round" stroke-linejoin="round" fill="rgb(0,0,0)"></path><path d="M-338.8213484,-164.3602818 L-338.8213484,-164.3602818 -338.7386163,-164.359847 -338.6574061,-164.3585424 -338.577718,-164.3563682 -338.4995519,-164.3533242 -338.4229078,-164.3494105 -338.3477857,-164.3446271 -338.2741856,-164.3389739 -338.2021075,-164.3324511 -338.1315514,-164.3250585 -338.0625173,-164.3167961 -337.9950052,-164.3076641 -337.9290152,-164.2976623 -337.8645471,-164.2867908 -337.801601,-164.2750496 -337.740177,-164.2624387 -337.6802749,-164.248958 -337.6802749,-164.248958 -337.6289251,-164.2359122 -337.5792422,-164.2222865 -337.5312263,-164.208081 -337.4848773,-164.1932957 -337.4401954,-164.1779306 -337.3971804,-164.1619857 -337.3558324,-164.1454609 -337.3161514,-164.1283564 -337.2781373,-164.1106721 -337.2417903,-164.0924079 -337.2071102,-164.073564 -337.174097,-164.0541402 -337.1427509,-164.0341367 -337.1130717,-164.0135533 -337.0850595,-163.9923901 -337.0587143,-163.9706472 -338.5894228,-167.2825442 -340.1015768,-164.3602818 -338.8213484,-164.3602818z" transform="matrix(1,0,0,-1,355.8168533,-155.2961748)" stroke="rgb(0,0,0)" stroke-width="0.0010cm" stroke-linecap="round" stroke-linejoin="round" fill="rgb(255,255,255)"></path></g><g id="Body_Body10" transform="matrix(-9.445782, 0.025472, 0.024746, -9.445652, 378.32777, 433.318708)" style="transform-origin: 47.7123px 11.0148px;"><path d="M -313.625 -168.275 L -312.818 -169.249 L -314.126 -169.249 L -316.955 -165.854 L -319.822 -169.249 L -321.13 -169.249 L -320.323 -168.275 L -320.323 -162.329 L -319.33 -162.329 L -319.33 -167.088 L -316.965 -164.258 L -314.618 -167.088 L -314.618 -164.411 L -314.618 -162.329 L -313.625 -162.329 L -313.625 -168.275 Z" transform="matrix(1,0,0,-1,355.8168533,-155.2961748)" style=""></path></g><g id="Body_Body3" transform="matrix(-9.445782, 0.025472, 0.024746, -9.445652, 377.123089, 434.380323)" style="transform-origin: 48.9177px 11.0151px;"><path d="M-302.410777,-165.4321518 L-302.410777,-165.4321518 -302.4284362,-165.4022731 -302.4455348,-165.3720615 -302.4620728,-165.341517 -302.4780501,-165.3106397 -302.4934669,-165.2794295 -302.508323,-165.2478864 -302.5226186,-165.2160105 -302.5363535,-165.1838017 -302.5495278,-165.15126 -302.5621415,-165.1183855 -302.5741946,-165.0851781 -302.5856871,-165.0516379 -302.596619,-165.0177647 -302.6069903,-164.9835587 -302.616801,-164.9490199 -302.626051,-164.9141482 -302.6347405,-164.8789436 -302.6428693,-164.8434062 -302.6504375,-164.8075359 -302.6574451,-164.7713327 -302.6638921,-164.7347966 -302.6697785,-164.6979277 -302.6751043,-164.660726 -302.6798695,-164.6231913 -302.6840741,-164.5853238 -302.687718,-164.5471235 -302.6908014,-164.5085903 -302.6933241,-164.4697242 -302.6952863,-164.4305252 -302.6966878,-164.3909934 -302.6975287,-164.3511287 -302.697809,-164.3109311 -302.697809,-164.3109311 -302.6974674,-164.2718724 -302.6964425,-164.2331816 -302.6947344,-164.1948586 -302.6923431,-164.1569036 -302.6892685,-164.1193165 -302.6855107,-164.0820973 -302.6810696,-164.0452459 -302.6759453,-164.0087625 -302.6701377,-163.972647 -302.6636469,-163.9368993 -302.6564729,-163.9015196 -302.6486156,-163.8665078 -302.640075,-163.8318638 -302.6308513,-163.7975878 -302.6209443,-163.7636797 -302.610354,-163.7301395 -302.5990805,-163.6969671 -302.5871238,-163.6641627 -302.5744838,-163.6317262 -302.5611606,-163.5996575 -302.5471541,-163.5679568 -302.5324644,-163.536624 -302.5170914,-163.5056591 -302.5010352,-163.475062 -302.4842958,-163.4448329 -302.4668731,-163.4149717 -302.4487672,-163.3854784 -302.429978,-163.3563529 -302.4105056,-163.3275954 -302.39035,-163.2992058 -302.3695111,-163.2711841 -302.347989,-163.2435302 -302.347989,-163.2435302 -302.328683,-163.2196079 -302.3088864,-163.1960536 -302.2885993,-163.1728671 -302.2678217,-163.1500485 -302.2465536,-163.1275978 -302.2247949,-163.105515 -302.2025457,-163.0838001 -302.179806,-163.0624532 -302.1565757,-163.0414741 -302.1328549,-163.0208629 -302.1086436,-163.0006196 -302.0839418,-162.9807443 -302.0587494,-162.9612368 -302.0330664,-162.9420972 -302.006893,-162.9233256 -301.980229,-162.9049218 -301.9530745,-162.8868859 -301.9254294,-162.869218 -301.8972939,-162.8519179 -301.8686677,-162.8349858 -301.8395511,-162.8184215 -301.8099439,-162.8022252 -301.7798462,-162.7863967 -301.749258,-162.7709362 -301.7181792,-162.7558435 -301.6866099,-162.7411188 -301.6545501,-162.7267619 -301.6219997,-162.712773 -301.5889588,-162.699152 -301.5554274,-162.6858988 -301.5214054,-162.6730136 -301.486893,-162.6604963 -301.486893,-162.6604963 -301.4248405,-162.6387726 -301.3620172,-162.6184506 -301.2984231,-162.59953 -301.2340581,-162.5820109 -301.1689222,-162.5658934 -301.1030155,-162.5511774 -301.0363379,-162.537863 -300.9688895,-162.52595 -300.9006702,-162.5154386 -300.8316801,-162.5063287 -300.7619191,-162.4986203 -300.6913872,-162.4923134 -300.6200845,-162.4874081 -300.548011,-162.4839043 -300.4751665,-162.481802 -300.4015513,-162.4811013 -297.0109827,-162.4811013 -297.0109827,-169.1725413 -300.4015513,-169.1725413 -300.4015513,-169.1725413 -300.4728012,-169.1717004 -300.5430351,-169.1691776 -300.6122528,-169.1649731 -300.6804545,-169.1590867 -300.7476401,-169.1515184 -300.8138096,-169.1422684 -300.8789629,-169.1313365 -300.9431002,-169.1187227 -301.0062214,-169.1044272 -301.0683265,-169.0884498 -301.1294155,-169.0707906 -301.1894884,-169.0514496 -301.2485452,-169.0304267 -301.3065859,-169.007722 -301.3636106,-168.9833354 -301.4196191,-168.9572671 -301.4196191,-168.9572671 -301.4743662,-168.929622 -301.5276067,-168.9005053 -301.5793406,-168.8699171 -301.6295678,-168.8378572 -301.6782883,-168.8043257 -301.7255022,-168.7693226 -301.7712095,-168.7328479 -301.8154101,-168.6949016 -301.858104,-168.6554838 -301.8992913,-168.6145943 -301.9389719,-168.5722332 -301.9771459,-168.5284005 -302.0138133,-168.4830962 -302.0489739,-168.4363203 -302.082628,-168.3880728 -302.1147754,-168.3383537 -302.1147754,-168.3383537 -302.1462747,-168.2850607 -302.1757418,-168.2305765 -302.2031767,-168.1749009 -302.2285794,-168.118034 -302.2519499,-168.0599758 -302.2732881,-168.0007264 -302.2925942,-167.9402856 -302.309868,-167.8786536 -302.3251096,-167.8158302 -302.338319,-167.7518156 -302.3494962,-167.6866097 -302.3586411,-167.6202124 -302.3657539,-167.5526239 -302.3708344,-167.4838441 -302.3738828,-167.413873 -302.3748989,-167.3427106 -302.3748989,-167.3427106 -302.3742857,-167.2881387 -302.3724462,-167.2343027 -302.3693804,-167.1812024 -302.3650882,-167.128838 -302.3595698,-167.0772093 -302.3528249,-167.0263164 -302.3448538,-166.9761594 -302.3356563,-166.9267381 -302.3252325,-166.8780526 -302.3135824,-166.830103 -302.300706,-166.7828891 -302.2866032,-166.736411 -302.2712741,-166.6906687 -302.2547186,-166.6456622 -302.2369369,-166.6013916 -302.2179288,-166.5578567 -302.2179288,-166.5578567 -302.1977995,-166.5153028 -302.176654,-166.4739754 -302.1544925,-166.4338742 -302.1313148,-166.3949994 -302.107121,-166.3573509 -302.0819111,-166.3209288 -302.0556851,-166.285733 -302.028443,-166.2517635 -302.0001847,-166.2190204 -301.9709103,-166.1875036 -301.9406199,-166.1572132 -301.9093133,-166.1281491 -301.8769906,-166.1003113 -301.8436517,-166.0736999 -301.8092968,-166.0483148 -301.7739257,-166.024156 -301.7739257,-166.024156 -301.8216125,-166.0008206 -301.8682482,-165.9756632 -301.9138327,-165.9486839 -301.9583661,-165.9198825 -302.0018483,-165.8892592 -302.0442794,-165.8568139 -302.0856593,-165.8225466 -302.1259881,-165.7864574 -302.1652657,-165.7485461 -302.2034922,-165.7088129 -302.2406676,-165.6672577 -302.2767917,-165.6238805 -302.3118648,-165.5786813 -302.3458867,-165.5316601 -302.3788574,-165.482817 -302.410777,-165.4321518z" transform="matrix(1,0,0,-1,355.8168533,-155.2961748)" stroke-linecap="round" stroke-linejoin="round" style="fill: rgb(34, 113, 146);"></path><path d="M-297.9797157,-165.1451186 L-297.9797157,-165.1451186 -298.0113725,-165.1616741 -298.0435549,-165.177704 -298.0762629,-165.1932084 -298.1094964,-165.2081872 -298.1432555,-165.2226404 -298.1775402,-165.2365681 -298.2123505,-165.2499702 -298.2476863,-165.2628467 -298.2835478,-165.2751977 -298.3199348,-165.287023 -298.3568473,-165.2983228 -298.3942855,-165.3090971 -298.4322492,-165.3193457 -298.4707385,-165.3290688 -298.5097534,-165.3382663 -298.5492939,-165.3469383 -298.5893599,-165.3550846 -298.6299516,-165.3627054 -298.6710687,-165.3698006 -298.7127115,-165.3763703 -298.7548799,-165.3824144 -298.7975738,-165.3879329 -298.8407933,-165.3929258 -298.8845384,-165.3973932 -298.928809,-165.401335 -298.9736053,-165.4047512 -299.0189271,-165.4076418 -299.0647745,-165.4100069 -299.1111475,-165.4118464 -299.158046,-165.4131603 -299.2054701,-165.4139487 -299.2534198,-165.4142115 -300.4015495,-165.4142115 -300.4015495,-165.4142115 -300.437192,-165.4140188 -300.4723615,-165.4134407 -300.507058,-165.4124771 -300.5412815,-165.4111281 -300.5750319,-165.4093938 -300.6083093,-165.4072739 -300.6411138,-165.4047687 -300.6734452,-165.4018781 -300.7053036,-165.398602 -300.736689,-165.3949405 -300.7676013,-165.3908936 -300.7980407,-165.3864613 -300.828007,-165.3816436 -300.8575004,-165.3764404 -300.8865207,-165.3708519 -300.915068,-165.3648779 -300.9431423,-165.3585185 -300.9707436,-165.3517736 -300.9978719,-165.3446434 -301.0245271,-165.3371277 -301.0507094,-165.3292266 -301.0764186,-165.3209401 -301.1016549,-165.3122682 -301.1264181,-165.3032108 -301.1507083,-165.2937681 -301.1745255,-165.2839399 -301.1978697,-165.2737263 -301.2207408,-165.2631273 -301.243139,-165.2521428 -301.2650641,-165.240773 -301.2865163,-165.2290177 -301.3074954,-165.216877 -301.3074954,-165.216877 -301.3334323,-165.2014515 -301.3585459,-165.1854478 -301.382836,-165.168866 -301.4063027,-165.1517061 -301.4289461,-165.133968 -301.450766,-165.1156519 -301.4717626,-165.0967576 -301.4919358,-165.0772851 -301.5112856,-165.0572346 -301.5298119,-165.0366059 -301.5475149,-165.0153991 -301.5643945,-164.9936141 -301.5804507,-164.971251 -301.5956835,-164.9483098 -301.6100929,-164.9247905 -301.6236789,-164.900693 -301.6364415,-164.8760174 -301.6483808,-164.8507637 -301.6594966,-164.8249319 -301.669789,-164.7985219 -301.6792581,-164.7715338 -301.6879037,-164.7439675 -301.6957259,-164.7158232 -301.7027248,-164.6871007 -301.7089003,-164.6578001 -301.7142523,-164.6279213 -301.718781,-164.5974644 -301.7224863,-164.5664294 -301.7253682,-164.5348163 -301.7274266,-164.502625 -301.7286617,-164.4698556 -301.7290734,-164.4365081 -301.7290734,-164.4365081 -301.7283026,-164.3975458 -301.7259901,-164.359144 -301.7221359,-164.3213029 -301.7167401,-164.2840224 -301.7098025,-164.2473025 -301.7013233,-164.2111431 -301.6913025,-164.1755444 -301.6797399,-164.1405063 -301.6666357,-164.1060288 -301.6519898,-164.0721119 -301.6358022,-164.0387556 -301.618073,-164.0059599 -301.5988021,-163.9737248 -301.5779895,-163.9420503 -301.5556353,-163.9109364 -301.5317394,-163.8803831 -301.5317394,-163.8803831 -301.5099456,-163.8549805 -301.4871708,-163.8303486 -301.4634149,-163.8064876 -301.4386779,-163.7833974 -301.4129599,-163.7610781 -301.3862608,-163.7395296 -301.3585807,-163.718752 -301.3299194,-163.6987452 -301.3002772,-163.6795093 -301.2696538,-163.6610442 -301.2380494,-163.6433499 -301.205464,-163.6264265 -301.1718974,-163.6102739 -301.1373499,-163.5948922 -301.1018212,-163.5802813 -301.0653115,-163.5664412 -301.0653115,-163.5664412 -301.0315699,-163.5534071 -300.997618,-163.5412138 -300.9634559,-163.5298615 -300.9290836,-163.5193501 -300.894501,-163.5096795 -300.8597082,-163.5008499 -300.8247052,-163.4928613 -300.7894919,-163.4857135 -300.7540684,-163.4794066 -300.7184347,-163.4739407 -300.6825908,-163.4693157 -300.6465366,-163.4655316 -300.6102721,-163.4625884 -300.5737975,-163.4604861 -300.5371126,-163.4592247 -300.5002174,-163.4588042 -297.9797157,-163.4588042 -297.9797157,-165.1451186z" transform="matrix(1,0,0,-1,355.8168533,-155.2961748)" stroke-width="0.0010cm" stroke-linecap="round" stroke-linejoin="round" style="" fill="rgb(255,255,255)"></path><path d="M-297.9797157,-168.1858669 L-300.4015513,-168.1858673 -300.4015513,-168.1858673 -300.4324221,-168.1856592 -300.4628067,-168.1850351 -300.4927052,-168.1839949 -300.5221175,-168.1825387 -300.5510437,-168.1806663 -300.5794837,-168.1783779 -300.6074376,-168.1756734 -300.6349053,-168.1725528 -300.6618868,-168.1690161 -300.6883822,-168.1650634 -300.7143915,-168.1606946 -300.7399146,-168.1559097 -300.7649515,-168.1507087 -300.7895023,-168.1450917 -300.8135669,-168.1390585 -300.8371454,-168.1326093 -300.8602377,-168.1257441 -300.8828439,-168.1184627 -300.9049639,-168.1107653 -300.9265978,-168.1026517 -300.9477455,-168.0941222 -300.968407,-168.0851765 -300.9885824,-168.0758147 -301.0082717,-168.0660369 -301.0274748,-168.055843 -301.0461917,-168.045233 -301.0644225,-168.034207 -301.0821671,-168.0227648 -301.0994256,-168.0109066 -301.1161979,-167.9986323 -301.1324841,-167.985942 -301.1482841,-167.9728355 -301.1635979,-167.959313 -301.1784256,-167.9453744 -301.1927672,-167.9310197 -301.2066226,-167.9162489 -301.2199918,-167.9010621 -301.2328749,-167.8854592 -301.2452718,-167.8694402 -301.2571826,-167.8530051 -301.2686072,-167.836154 -301.2795457,-167.8188868 -301.289998,-167.8012035 -301.2999642,-167.7831041 -301.3094442,-167.7645886 -301.318438,-167.7456571 -301.3269457,-167.7263095 -301.3349672,-167.7065458 -301.3425026,-167.686366 -301.3495519,-167.6657702 -301.3561149,-167.6447582 -301.3621919,-167.6233302 -301.3677826,-167.6014862 -301.3728873,-167.579226 -301.3775057,-167.5565498 -301.381638,-167.5334575 -301.3852842,-167.5099491 -301.3884442,-167.4860246 -301.391118,-167.4616841 -301.3933057,-167.4369274 -301.3950073,-167.4117547 -301.3962226,-167.386166 -301.3969519,-167.3601611 -301.3971949,-167.3337402 -301.3971949,-167.3337402 -301.3969365,-167.3053681 -301.3961613,-167.2774339 -301.3948693,-167.2499378 -301.3930605,-167.2228796 -301.3907348,-167.1962594 -301.3878924,-167.1700772 -301.3845331,-167.1443329 -301.380657,-167.1190267 -301.3762641,-167.0941584 -301.3713544,-167.069728 -301.3659278,-167.0457357 -301.3599845,-167.0221813 -301.3535244,-166.9990649 -301.3465474,-166.9763865 -301.3390536,-166.954146 -301.331043,-166.9323436 -301.3225156,-166.9109791 -301.3134714,-166.8900526 -301.3039104,-166.869564 -301.2938325,-166.8495135 -301.2832379,-166.8299009 -301.2721264,-166.8107263 -301.2604981,-166.7919896 -301.248353,-166.7736909 -301.2356911,-166.7558303 -301.2225124,-166.7384075 -301.2088169,-166.7214228 -301.1946046,-166.704876 -301.1798754,-166.6887673 -301.1646294,-166.6730965 -301.1488667,-166.6578636 -301.1325871,-166.6430688 -301.1325871,-166.6430688 -301.115852,-166.6287206 -301.0987227,-166.614828 -301.0811993,-166.6013909 -301.0632817,-166.5884092 -301.0449698,-166.5758831 -301.0262639,-166.5638125 -301.0071637,-166.5521973 -300.9876694,-166.5410377 -300.9677808,-166.5303335 -300.9474981,-166.5200849 -300.9268212,-166.5102917 -300.9057502,-166.500954 -300.8842849,-166.4920718 -300.8624255,-166.4836452 -300.8401719,-166.475674 -300.8175241,-166.4681583 -300.7944822,-166.4610981 -300.771046,-166.4544934 -300.7472157,-166.4483442 -300.7229912,-166.4426505 -300.6983726,-166.4374123 -300.6733597,-166.4326296 -300.6479527,-166.4283024 -300.6221514,-166.4244307 -300.5959561,-166.4210145 -300.5693665,-166.4180538 -300.5423827,-166.4155485 -300.5150048,-166.4134988 -300.4872327,-166.4119046 -300.4590664,-166.4107658 -300.4305059,-166.4100826 -300.4015513,-166.4098548 -299.2534215,-166.4098548 -299.2534215,-166.4098548 -299.2056998,-166.4096796 -299.1589591,-166.4091541 -299.1131994,-166.4082781 -299.0684208,-166.4070518 -299.0246233,-166.405475 -298.9818068,-166.4035479 -298.9399713,-166.4012705 -298.8991169,-166.3986426 -298.8592436,-166.3956643 -298.8203513,-166.3923357 -298.78244,-166.3886567 -298.7455098,-166.3846273 -298.7095607,-166.3802475 -298.6745926,-166.3755173 -298.6406055,-166.3704368 -298.6075995,-166.3650059 -298.6075995,-166.3650059 -298.5641521,-166.3567719 -298.5212653,-166.3477671 -298.4789392,-166.3379914 -298.4371736,-166.3274449 -298.3959687,-166.3161276 -298.3553244,-166.3040395 -298.3152407,-166.2911805 -298.2757177,-166.2775506 -298.2367553,-166.26315 -298.1983535,-166.2479785 -298.1605123,-166.2320361 -298.1232317,-166.215323 -298.0865118,-166.1978389 -298.0503525,-166.1795841 -298.0147538,-166.1605584 -297.9797157,-166.1407619 -297.9797157,-168.1858669z" transform="matrix(1,0,0,-1,355.8168533,-155.2961748)" stroke-width="0.0010cm" stroke-linecap="round" stroke-linejoin="round" style="fill: rgb(255, 255, 255);"></path></g><g id="Body_Body9" transform="matrix(-9.445782, 0.025472, 0.024746, -9.445652, 379.37376, 433.700025)" style="transform-origin: 46.6675px 11.0142px;"><path d="M-332.178998,-162.3286136 L-331.195634,-162.3286136 -331.195634,-168.2288006 -328.7279459,-168.2288006 -328.7279459,-169.2492731 -334.6188561,-169.2492731 -334.6188561,-168.2288004 -332.178998,-168.2288004 -332.178998,-162.3286136z" transform="matrix(1,0,0,-1,355.8168533,-155.2961748)" stroke-linecap="round" stroke-linejoin="round" fill="rgb(0,0,0)"></path></g><g id="Body_Body2" transform="matrix(-9.445782, 0.025472, 0.024746, -9.445652, 376.151745, 434.052808)" style="transform-origin: 49.8893px 11.0156px;"><path d="M-283.3859185,-169.1725404 L-289.081715,-169.1725404 -289.0817154,-168.1858669 -286.7226688,-168.1858669 -286.7226688,-162.4811004 -285.7718744,-162.4811004 -285.7718744,-168.1858671 -283.3859185,-168.1858671 -283.3859185,-169.1725404z" stroke-linecap="round" stroke-linejoin="round" style="fill: rgb(34, 113, 146);" transform="matrix(1,0,0,-1,355.8168533,-155.2961748)"></path></g><g id="Body_Body8" transform="matrix(-9.445782, 0.025472, 0.024746, -9.445652, 378.919689, 433.610029)" style="transform-origin: 47.1211px 11.0089px;"><path d="M-324.2193128,-165.3250922 L-324.2193128,-165.3250922 -324.1755006,-165.3166124 -324.1321957,-165.3074078 -324.0893982,-165.2974785 -324.047108,-165.2868244 -324.0053252,-165.2754455 -323.9640497,-165.2633419 -323.9232816,-165.2505135 -323.8830207,-165.2369603 -323.8432673,-165.2226824 -323.8040211,-165.2076797 -323.7652824,-165.1919522 -323.7270509,-165.1755 -323.6893268,-165.158323 -323.6521101,-165.1404212 -323.6154006,-165.1217947 -323.5791986,-165.1024434 -323.5791986,-163.3398093 -327.8466297,-163.3398093 -327.8466297,-162.3286136 -322.5680029,-162.3286136 -322.5680029,-169.2492731 -327.4384402,-169.2492731 -327.4384402,-168.2288006 -323.5791986,-168.2288006 -323.5791986,-166.1321936 -323.5791986,-166.1321936 -323.6154007,-166.152632 -323.6521103,-166.1722007 -323.6893271,-166.1908997 -323.7270512,-166.2087289 -323.7652827,-166.2256885 -323.8040216,-166.2417783 -323.8432677,-166.2569984 -323.8830212,-166.2713488 -323.923282,-166.2848294 -323.9640501,-166.2974404 -324.0053256,-166.3091816 -324.0471084,-166.3200531 -324.0893985,-166.3300549 -324.1321959,-166.3391869 -324.1755007,-166.3474493 -324.2193128,-166.3548419 -324.2193128,-166.3548419 -324.2523622,-166.3604589 -324.2865712,-166.3657135 -324.3219398,-166.3706057 -324.3584681,-166.3751355 -324.396156,-166.3793029 -324.4350035,-166.3831079 -324.4750107,-166.3865506 -324.5161775,-166.3896309 -324.5585039,-166.3923488 -324.60199,-166.3947043 -324.6466357,-166.3966974 -324.692441,-166.3983281 -324.739406,-166.3995965 -324.7875306,-166.4005024 -324.8368149,-166.401046 -324.8872587,-166.4012272 -326.3994128,-166.4012272 -326.3994128,-165.3714775 -324.8872587,-165.3714775 -324.8872587,-165.3714775 -324.8400764,-165.3712963 -324.7936188,-165.3707527 -324.747886,-165.3698467 -324.7028779,-165.3685784 -324.6585946,-165.3669477 -324.6150361,-165.3649545 -324.5722023,-165.362599 -324.5300933,-165.3598811 -324.4887091,-165.3568009 -324.4480496,-165.3533582 -324.4081149,-165.3495532 -324.368905,-165.3453857 -324.3304198,-165.3408559 -324.2926594,-165.3359637 -324.2556237,-165.3307091 -324.2193128,-165.3250922z" transform="matrix(1,0,0,-1,355.8168533,-155.2961748)" stroke-linecap="round" stroke-linejoin="round" style="" fill="rgb(0,0,0)"></path></g><g id="Body_Body4" transform="matrix(-9.445782, 0.025472, 0.024746, -9.445652, 376.614483, 434.23686)" style="transform-origin: 49.4258px 11.0138px;"><path d="M-291.9340977,-165.3783325 L-291.9340977,-165.3783325 -291.8917366,-165.3701336 -291.849866,-165.3612338 -291.808486,-165.3516334 -291.7675966,-165.3413322 -291.7271977,-165.3303302 -291.6872893,-165.3186274 -291.6478715,-165.3062239 -291.6089442,-165.2931196 -291.5705075,-165.2793146 -291.5325613,-165.2648088 -291.4951056,-165.2496023 -291.4581405,-165.2336949 -291.421666,-165.2170869 -291.385682,-165.199778 -291.3501885,-165.1817684 -291.3151856,-165.1630581 -291.3151856,-163.4588042 -295.4412741,-163.4588042 -295.4412741,-162.4811004 -290.3374809,-162.4811004 -290.3374809,-169.1725404 -295.0466042,-169.1725404 -295.0466042,-168.1858671 -291.3151847,-168.1858671 -291.3151847,-166.1587018 -291.3151847,-166.1587018 -291.3501878,-166.1784633 -291.3856815,-166.1973839 -291.4216657,-166.2154635 -291.4581404,-166.2327023 -291.4951056,-166.2491001 -291.5325613,-166.264657 -291.5705076,-166.279373 -291.6089444,-166.2932481 -291.6478717,-166.3062822 -291.6872896,-166.3184755 -291.7271979,-166.3298278 -291.7675968,-166.3403393 -291.8084863,-166.3500098 -291.8498662,-166.3588394 -291.8917367,-166.3668281 -291.9340977,-166.3739758 -291.9340977,-166.3739758 -291.9660524,-166.3794068 -291.9991284,-166.3844873 -292.0333256,-166.3892175 -292.068644,-166.3935973 -292.1050836,-166.3976266 -292.1426445,-166.4013057 -292.1813266,-166.4046343 -292.2211299,-166.4076126 -292.2620544,-166.4102404 -292.3041002,-166.4125179 -292.3472672,-166.414445 -292.3915554,-166.4160217 -292.4369649,-166.4172481 -292.4834955,-166.418124 -292.5311474,-166.4186496 -292.5799206,-166.4188248 -294.0419913,-166.4188248 -294.0419913,-165.4231815 -292.5799206,-165.4231815 -292.5799206,-165.4231815 -292.5343009,-165.4230063 -292.4893821,-165.4224807 -292.445164,-165.4216047 -292.4016466,-165.4203784 -292.3588301,-165.4188017 -292.3167142,-165.4168746 -292.2752992,-165.4145971 -292.2345849,-165.4119692 -292.1945713,-165.408991 -292.1552585,-165.4056623 -292.1166465,-165.4019833 -292.0787352,-165.3979539 -292.0415247,-165.3935741 -292.0050149,-165.388844 -291.9692059,-165.3837634 -291.9340977,-165.3783325z" transform="matrix(1,0,0,-1,355.8168533,-155.2961748)" stroke-linecap="round" stroke-linejoin="round" style="fill: rgb(34, 113, 146);"></path></g><g id="Body_Body12" transform="matrix(-9.445782, 0.025472, 0.024746, -9.445652, 380.930889, 434.324964)" style="transform-origin: 45.11px 11.0048px;"><path d="M-351.9761662,-169.2492731 L-351.9761662,-163.3398093 -355.8168533,-163.3398093 -355.8168533,-162.3286136 -350.9649705,-162.3286136 -350.9649705,-169.2492731 -351.9761662,-169.2492731z" transform="matrix(1,0,0,-1,355.8168533,-155.2961748)" stroke-linecap="round" stroke-linejoin="round" fill="rgb(0,0,0)"></path></g></svg>